<?xml version="1.0" encoding="utf-8"?>
<!-- Generator: Adobe Illustrator 24.3.0, SVG Export Plug-In . SVG Version: 6.00 Build 0)  -->
<svg version="1.1" id="Camada_1" xmlns="http://www.w3.org/2000/svg" xmlns:xlink="http://www.w3.org/1999/xlink" x="0px" y="0px"
	 viewBox="0 0 1080 1080" style="enable-background:new 0 0 1080 1080;" xml:space="preserve">
<style type="text/css">
	.st0{fill:#666666;}
	.st1{fill:#081360;}
</style>
<g>
	<path class="st0" d="M211.41,560.96h43.47v-22.94c0-4.29-3.48-7.76-7.76-7.76h-58.48c-4.29,0-7.76,3.48-7.76,7.76v53.3
		c0,4.29,3.48,7.76,7.76,7.76h22.77V560.96z"/>
	<path class="st0" d="M246.61,440.75h-57.43c-4.6,0-8.34,3.67-8.34,8.27v52.63c0,4.54,3.74,8.27,8.34,8.27h57.43
		c4.54,0,8.27-3.74,8.27-8.27v-52.63C254.88,444.42,251.15,440.75,246.61,440.75z M238.08,494.18h-40.42v-37.75h40.42V494.18z"/>
	<path class="st0" d="M334.06,440.75h-57.43c-4.6,0-8.34,3.67-8.34,8.27v52.63c0,4.54,3.74,8.27,8.34,8.27h57.43
		c4.54,0,8.27-3.74,8.27-8.27v-52.63C342.33,444.42,338.6,440.75,334.06,440.75z M325.52,494.18H285.1v-37.75h40.42V494.18z"/>
	<path class="st1" d="M820.71,613.91c-24.88-6.2-24.35-28.95-24.35-28.95c2.4-45.22,50.89-29.02,50.89-29.02l13.27-22.74
		c-47.42-17.94-76.51,1.67-86.58,23.81c-8,17.61-5.74,37.22-5.74,37.22l-37.42-65.7l-44.69,85.71H667.7l-26.75-85.51l-39.69,67.57
		l-40.35-67.57l-25.35,85.38h-48.16V597.9h41.42v-23.48h-41.96v-20.34h41.96v-25.35h-57.56c-5,0-9,4-9,9v76.37h-15.54l-15.74-22.95
		c10.34,0,18.68-8.34,18.68-18.61v-10.27c0-18.54-15.01-33.55-33.55-33.55H279.83c-6.2,0-11.14,4.94-11.14,11.07v36.35H228.8v26.21
		h39.89v36.89h27.75v-36.89h26.15c17.94,0,32.48-14.54,32.48-32.55v-15.61h8.8v85.04h27.95v-37.22h13.47l26.08,37.22h125.07
		l13.27-46.69l31.75,46.69l32.22-45.89l13.27,45.89h57.1l5.2-11.01h45.22l6.54,11.01h31.22l-11.41-21.21
		c15.01,18.68,39.69,21.21,39.69,21.21h78.64v-25.35H820.71z M326.86,565.48c0,6-4.87,10.87-10.87,10.87h-19.41v-22.21h19.41
		c6,0,10.87,4.87,10.87,10.87V565.48z M422.84,565.48c0,6-4.8,10.87-10.81,10.87h-19.48v-22.21h19.48c6,0,10.81,4.87,10.81,10.87
		V565.48z M719.06,606.7l11.74-23.41l13.27,23.41H719.06z"/>
</g>
</svg>
